<?xml version="1.0" encoding="UTF-8"?>
<svg viewBox="0 0 13 13" preserveAspectRatio="xMidYMid meet" version="1.1" xmlns="http://www.w3.org/2000/svg" xmlns:xlink="http://www.w3.org/1999/xlink">
    <!-- Generator: Sketch 50.2 (55047) - http://www.bohemiancoding.com/sketch -->
    <title>Combined Shape</title>
    <desc>Created with Sketch.</desc>
    <defs></defs>
    <g id="Page-1" stroke="none" stroke-width="1" fill="none" fill-rule="evenodd">
        <g id="10_05_SQL-Playground_Settings" transform="translate(-166.000000, -378.000000)" fill="currentColor">
            <g id="Body" transform="translate(69.000000, 60.000000)">
                <g id="Left-side" transform="translate(22.000000, 103.000000)">
                    <g id="Data" transform="translate(10.000000, 115.000000)">
                        <g id="Group-12" transform="translate(28.000000, 36.000000)">
                            <g id="Group-8-Copy-3" transform="translate(37.000000, 60.000000)">
                                <path d="M9.07692308,7 L10,4 L12,4 L11.0769231,7 L13,7 L13,9 L10.4615385,9 L9.53846154,12 L12,12 L12,14 L8.92307692,14 L8,17 L6,17 L6.92307692,14 L3.92307692,14 L3,17 L1,17 L1.92307692,14 L0,14 L0,12 L2.53846154,12 L3.46153846,9 L1,9 L1,7 L4.07692308,7 L5,4 L7,4 L6.07692308,7 L9.07692308,7 Z M8.46153846,9 L5.46153846,9 L4.53846154,12 L7.53846154,12 L8.46153846,9 Z" id="Combined-Shape"></path>
                            </g>
                        </g>
                    </g>
                </g>
            </g>
        </g>
    </g>
</svg>