<?xml version="1.0" encoding="UTF-8"?>
<svg viewBox="0 0 17 10" preserveAspectRatio="xMidYMid meet" version="1.1" xmlns="http://www.w3.org/2000/svg" xmlns:xlink="http://www.w3.org/1999/xlink">
    <!-- Generator: Sketch 50.2 (55047) - http://www.bohemiancoding.com/sketch -->
    <title>Aa</title>
    <desc>Created with Sketch.</desc>
    <defs></defs>
    <g id="Page-1" stroke="none" stroke-width="1" fill="none" fill-rule="evenodd">
        <g id="10_05_SQL-Playground_Settings" transform="translate(-165.000000, -409.000000)" fill="currentColor">
            <g id="Body" transform="translate(69.000000, 60.000000)">
                <g id="Left-side" transform="translate(22.000000, 103.000000)">
                    <g id="Data" transform="translate(10.000000, 115.000000)">
                        <g id="Group-12" transform="translate(28.000000, 36.000000)">
                            <g id="Group-8-Copy-4" transform="translate(36.000000, 90.000000)">
                                <path d="M7.528,12.2 L3.628,12.2 L2.884,14 L0.892,14 L4.636,5.6 L6.556,5.6 L10.312,14 L8.272,14 L7.528,12.2 Z M6.916,10.724 L5.584,7.508 L4.252,10.724 L6.916,10.724 Z M13.66,7.448 C14.660005,7.448 15.4279973,7.68599762 15.964,8.162 C16.5000027,8.63800238 16.768,9.3559952 16.768,10.316 L16.768,14 L15.016,14 L15.016,13.196 C14.6639982,13.796003 14.0080048,14.096 13.048,14.096 C12.5519975,14.096 12.1220018,14.0120008 11.758,13.844 C11.3939982,13.6759992 11.116001,13.4440015 10.924,13.148 C10.731999,12.8519985 10.636,12.5160019 10.636,12.14 C10.636,11.539997 10.8619977,11.0680017 11.314,10.724 C11.7660023,10.3799983 12.4639953,10.208 13.408,10.208 L14.896,10.208 C14.896,9.79999796 14.7720012,9.4860011 14.524,9.266 C14.2759988,9.0459989 13.9040025,8.936 13.408,8.936 C13.0639983,8.936 12.7260017,8.98999946 12.394,9.098 C12.0619983,9.20600054 11.7800012,9.35199908 11.548,9.536 L10.876,8.228 C11.2280018,7.97999876 11.6499975,7.78800068 12.142,7.652 C12.6340025,7.51599932 13.1399974,7.448 13.66,7.448 Z M13.516,12.836 C13.8360016,12.836 14.1199988,12.7620007 14.368,12.614 C14.6160012,12.4659993 14.7919995,12.2480014 14.896,11.96 L14.896,11.3 L13.612,11.3 C12.8439962,11.3 12.46,11.5519975 12.46,12.056 C12.46,12.2960012 12.5539991,12.4859993 12.742,12.626 C12.9300009,12.7660007 13.1879984,12.836 13.516,12.836 Z" id="Aa"></path>
                            </g>
                        </g>
                    </g>
                </g>
            </g>
        </g>
    </g>
</svg>